<svg width="283" height="47" viewBox="0 0 283 47" fill="none" xmlns="http://www.w3.org/2000/svg">
<path d="M33.2457 20.3768H42.9573V21.9259L41.1699 24.6666V41.2894H40.0974C39.3229 41.2894 38.6079 41.5277 37.9526 41.8852C33.4245 44.6855 28.3602 46.0558 22.5213 46.0558C17.8145 46.0558 13.7035 45.043 10.3074 43.0172C6.91133 40.9915 4.2898 38.1912 2.56198 34.7356C0.834155 31.3395 3.32987e-05 27.4668 3.32987e-05 23.3558C3.32987e-05 19.1852 0.834155 15.3721 2.56198 11.976C4.2898 8.52035 6.91133 5.72009 10.3074 3.69436C13.7035 1.66864 17.8145 0.655775 22.5213 0.655775C24.6066 0.655775 26.6323 0.834517 28.5389 1.192C30.0284 1.43032 31.4583 1.84738 32.7691 2.32402C33.3053 2.50276 33.7224 2.6815 34.199 2.86024C35.8077 3.51562 37.5951 3.81352 39.3825 3.63478H39.6804L41.0507 4.34974L37.3568 11.261H35.5694L35.2119 10.5461C35.1523 10.3673 34.9736 10.129 34.7948 9.89069C34.3182 9.23531 33.7224 8.57993 32.9478 7.98413C31.7562 7.03085 30.2071 6.19672 28.3006 5.48177C27.9431 5.3626 27.526 5.24344 27.109 5.12429C25.5003 4.70722 23.7129 4.4689 21.8064 4.4689C18.5294 4.4689 15.7292 5.30302 13.4056 6.97127C11.0819 8.63951 9.29453 10.9036 8.10293 13.7038C6.85175 16.6232 6.25595 19.8406 6.25595 23.3558C6.25595 26.871 6.85175 30.0884 8.10293 32.9482C9.29453 35.808 11.0819 38.0721 13.4056 39.7403C15.7292 41.4086 18.5294 42.2427 21.8064 42.2427C24.2491 42.2427 26.394 41.8852 28.3006 41.2298C30.2071 40.5149 31.7562 39.6807 32.9478 38.7275C33.8415 37.9529 34.5565 37.238 35.0331 36.523V24.6666L33.2457 21.9259V20.3768ZM114.967 40.634L116.873 43.5535V45.1025H107.341V43.5535L108.651 41.4086L105.017 32.7695C99.3569 34.259 93.1605 33.9015 86.5471 31.7566L85.5343 31.4587L81.0062 41.7661L79.5167 45.1025L48.8329 45.043V43.4939L50.5607 40.7532V5.83925L48.8329 3.03898V1.4899H56.34H58.4849V3.03898L56.6975 5.83925V41.0511H76.1802C76.2993 41.0511 76.4781 41.0511 76.6568 40.9915C77.0739 40.8724 77.4314 40.4553 77.7293 39.9786C77.7293 39.8595 77.7888 39.7999 77.7888 39.7403L82.0786 30.0884C81.8403 29.9692 81.602 29.9096 81.3637 29.7905C74.8098 26.871 68.4348 25.3219 62.2384 25.2028L60.5702 25.1432L62.3576 21.4492H63.0726C69.6264 21.628 76.4781 23.2962 83.449 26.3944C83.5085 26.454 83.6277 26.5135 83.6873 26.5135L95.4841 0.000395087H97.8673L114.967 40.634ZM95.3054 9.47363L87.1429 27.8839L87.4408 28.003C94.3521 30.3863 99.8931 30.2075 103.587 29.433L95.3054 9.47363ZM168.218 40.8128L170.005 43.5535V45.1025H160.294V43.5535L162.081 40.8128V11.6781L144.624 44.0301L126.929 11.2015V41.0511L128.538 43.613V45.043L127.465 45.1025H121.448V43.7322L121.567 43.3747L123.116 40.9915L123.056 5.60092L121.448 3.03898V1.60906L122.52 1.54948L127.823 1.4899L128.597 2.91982L145.458 34.1994L163.154 1.4899H166.907L168.218 1.07284V1.4899H170.005V3.03898L168.218 5.83925V40.8128ZM193.752 20.1385C201.736 22.8196 207.932 25.5007 208.111 33.3057C208.171 36.8209 207.158 39.6807 205.132 41.8256C202.689 44.328 198.876 45.6388 194.169 45.6388C189.701 45.6388 185.888 44.6259 182.849 42.7193C181.598 41.9448 179.989 41.8852 178.738 42.6598L178.44 42.8385H176.951V32.8886L178.619 33.1269L178.976 33.3653L179.155 33.6036C180.883 35.9272 182.67 37.7146 184.636 39.0849C187.437 40.9915 190.475 41.8852 193.991 41.8852C196.97 41.8852 199.591 40.9319 201.2 39.2041C202.332 37.9529 202.868 36.3443 202.689 34.4973C202.332 31.0416 200.783 29.433 191.429 26.1561C185.054 23.8324 177.189 20.9726 177.189 12.8101C177.189 7.68623 180.764 1.60906 190.833 1.60906C193.633 1.60906 195.718 2.26444 197.208 2.6815L197.327 2.74108C198.817 3.21772 200.485 3.09856 201.796 2.44318L202.868 1.90696H204.357V11.261H202.808L202.093 10.7844C201.557 10.1886 201.021 9.65237 200.485 9.17573C199.412 8.22245 198.34 7.44791 197.148 6.85211L196.791 6.67337C194.884 5.77967 192.799 5.3626 190.594 5.3626C186.662 5.3626 182.492 7.38833 182.492 11.9164C182.492 16.3849 187.615 18.1127 193.573 20.0789L193.752 20.1385ZM241.748 1.4899H249.195V3.09856L246.276 6.49463L232.751 27.4668V40.7532L234.539 43.5535V45.1025H224.887V43.5535L226.614 40.7532V28.003L212.256 5.6605L210.111 3.15814V1.4899L219.941 1.54948V3.15814L218.75 4.4689L219.286 5.24344L230.845 23.4154L242.88 4.70722L241.748 3.03898V1.4899ZM268.403 20.1385C276.387 22.8196 282.583 25.5007 282.762 33.3057C282.822 36.8209 281.809 39.6807 279.783 41.8256C277.34 44.328 273.527 45.6388 268.82 45.6388C264.352 45.6388 260.539 44.6259 257.5 42.7193C256.249 41.9448 254.64 41.8852 253.389 42.6598L253.091 42.8385H251.602V32.8886L253.27 33.1269L253.627 33.3653L253.806 33.6036C255.534 35.9272 257.321 37.7146 259.288 39.0849C262.088 40.9915 265.126 41.8852 268.642 41.8852C271.621 41.8852 274.242 40.9319 275.851 39.2041C276.983 37.9529 277.519 36.3443 277.34 34.4973C276.983 31.0416 275.434 29.433 266.08 26.1561C259.705 23.8324 251.84 20.9726 251.84 12.8101C251.84 7.68623 255.415 1.60906 265.484 1.60906C268.284 1.60906 270.369 2.26444 271.859 2.6815L271.978 2.74108C273.468 3.21772 275.136 3.09856 276.447 2.44318L277.519 1.90696H279.009V11.261H277.459L276.745 10.7844C276.208 10.1886 275.672 9.65237 275.136 9.17573C274.063 8.22245 272.991 7.44791 271.799 6.85211L271.442 6.67337C269.535 5.77967 267.45 5.3626 265.246 5.3626C261.313 5.3626 257.143 7.38833 257.143 11.9164C257.143 16.3849 262.267 18.1127 268.225 20.0789L268.403 20.1385Z" fill="#34150F"/>
</svg>
